<?xml version="1.0" encoding="UTF-8" standalone="no"?>
<!-- Created with Inkscape (http://www.inkscape.org/) -->

<svg
   width="210mm"
   height="297mm"
   viewBox="0 0 210 297"
   version="1.1"
   id="svg1"
   inkscape:version="1.3.2 (091e20e, 2023-11-25, custom)"
   sodipodi:docname="trazossueltos.svg"
   xmlns:inkscape="http://www.inkscape.org/namespaces/inkscape"
   xmlns:sodipodi="http://sodipodi.sourceforge.net/DTD/sodipodi-0.dtd"
   xmlns="http://www.w3.org/2000/svg"
   xmlns:svg="http://www.w3.org/2000/svg">
  <sodipodi:namedview
     id="namedview1"
     pagecolor="#ffffff"
     bordercolor="#000000"
     borderopacity="0.25"
     inkscape:showpageshadow="2"
     inkscape:pageopacity="0.0"
     inkscape:pagecheckerboard="0"
     inkscape:deskcolor="#d1d1d1"
     inkscape:document-units="mm"
     inkscape:zoom="0.74564394"
     inkscape:cx="396.30175"
     inkscape:cy="560.58928"
     inkscape:window-width="1920"
     inkscape:window-height="1051"
     inkscape:window-x="-9"
     inkscape:window-y="-9"
     inkscape:window-maximized="1"
     inkscape:current-layer="layer1" />
  <defs
     id="defs1" />
  <g
     inkscape:label="Layer 1"
     inkscape:groupmode="layer"
     id="layer1">
    <path
       style="fill:#24221c;fill-opacity:0.0627451;stroke-width:0.264583"
       d="M 8.1612903,28.741936 24.838709,28.032257"
       id="path1" />
    <path
       style="fill:#24221c;fill-opacity:0.0627451;stroke-width:0.264583"
       d="m 14.548387,45.774194 20.580646,5.677419"
       id="path2" />
    <path
       style="fill:#24221c;fill-opacity:0.0627451;stroke-width:0.264583"
       d="m 28.387095,20.935484 6.741938,8.870968"
       id="path3" />
    <path
       style="fill:#24221c;fill-opacity:0.0627451;stroke-width:0.264583"
       d="M 25.548387,35.483871 C 24.11388,34.945042 22.732135,34.441812 21.645161,33.354838"
       id="path4" />
    <path
       style="fill:#24221c;fill-opacity:0.0627451;stroke-width:0.264583"
       id="path5"
       d="m 10.163638,42.555191 c 0.939112,-0.240535 0.455128,-0.106529 1.450773,-0.406249 0,0 -3.2055551,-2.195346 -3.2055551,-2.195346 v 0 c -1.0054135,0.271801 -0.5097793,0.155308 -1.4859063,0.35369 z" />
    <path
       style="fill:#24221c;fill-opacity:0.0627451;stroke-width:0.264583"
       id="path6"
       d="m 21.454064,38.419352 c 0.193738,-0.0036 0.387476,-0.0072 0.581215,-0.0108 0,0 -3.167072,-2.301013 -3.167072,-2.301013 v 0 c -0.203632,-0.0036 -0.407264,-0.0072 -0.610896,-0.01079 z" />
    <path
       style="fill:#24221c;fill-opacity:0.0627451;stroke-width:0.264583"
       id="path7"
       d="m 27.958809,52.500958 c -0.75052,1.360786 -1.882636,2.457045 -2.945931,3.569414 0,0 3.198835,1.955078 3.198835,1.955078 v 0 c 1.123551,-1.126069 2.316724,-2.221606 3.187711,-3.565459 z" />
    <path
       style="fill:#24221c;fill-opacity:0.0627451;stroke-width:0.264583"
       id="path8"
       d="m 79.886047,72.326938 c 0.151358,-1.186619 0.07913,-0.522867 0.197236,-1.993281 0,0 -3.394778,-1.772914 -3.394778,-1.772914 v 0 c -0.170993,1.399863 -0.06971,0.777007 -0.275741,1.87293 z" />
    <path
       style="fill:#24221c;fill-opacity:0.0627451;stroke-width:0.264583"
       id="path9"
       d="m 73.97574,45.753231 c -1.177677,-0.633203 -2.448981,-1.049687 -3.686318,-1.544899 0,0 3.020592,2.374259 3.020592,2.374259 v 0 c 1.263964,0.499227 2.545135,0.963872 3.736316,1.626825 z" />
    <path
       style="fill:#24221c;fill-opacity:0.0627451;stroke-width:0.264583"
       id="path10"
       d="m 46.997103,51.050256 c 1.125117,2.455084 2.26844,4.901684 3.432885,7.338549 0.195042,0.420814 0.390085,0.841632 0.585131,1.262449 0,0 3.457763,1.574834 3.457763,1.574834 v 0 c -0.20178,-0.425101 -0.403559,-0.850204 -0.605338,-1.275307 -1.152768,-2.391866 -2.273612,-4.799754 -3.299285,-7.248917 z" />
    <path
       style="fill:#24221c;fill-opacity:0.0627451;stroke-width:0.264583"
       id="path11"
       d="m 50.179615,102.22584 c -0.716926,0.84529 -0.337563,0.40909 -1.141016,1.30606 0,0 3.304633,2.00478 3.304633,2.00478 v 0 c 0.829336,-0.88897 0.42708,-0.46372 1.205505,-1.27696 z" />
    <path
       style="fill:#24221c;fill-opacity:0.0627451;stroke-width:0.264583"
       id="path12"
       d="m 31.756238,112.99633 c -0.665043,0.43249 -0.317521,0.16608 -1.011449,0.83826 0,0 3.308276,2.0493 3.308276,2.0493 v 0 c 0.690325,-0.58402 0.344945,-0.34894 1.015823,-0.73421 z" />
    <path
       style="fill:#24221c;fill-opacity:0.0627451;stroke-width:0.264583"
       id="path13"
       d="m 30.427951,139.70419 c 0.622056,1.6756 0.249105,0.77075 1.159721,2.69735 0,0 3.42019,1.55858 3.42019,1.55858 v 0 c -0.852247,-1.85162 -0.517165,-0.97561 -1.055508,-2.60828 z" />
    <path
       style="fill:#24221c;fill-opacity:0.0627451;stroke-width:0.264583"
       id="path14"
       d="m 70.500758,159.09553 c 8.730689,0.21918 17.48487,-0.6889 26.084939,-2.15429 2.608668,-0.4445 5.193533,-1.01889 7.790303,-1.52834 2.32197,-0.52181 4.64395,-1.04363 6.96593,-1.56544 0,0 -2.45416,-1.69936 -2.45416,-1.69936 v 0 c -2.28726,0.54191 -4.57452,1.08382 -6.86178,1.62574 -2.594506,0.50469 -5.175323,1.08567 -7.783503,1.51408 -8.855835,1.45462 -17.908921,2.1946 -26.872277,1.50789 z" />
    <path
       style="fill:#24221c;fill-opacity:0.0627451;stroke-width:0.264583"
       id="path15"
       d="m 124.73572,130.38911 c -0.40417,-0.49227 -0.79162,-0.99787 -1.18599,-1.49796 0,0 -3.58714,-1.53496 -3.58714,-1.53496 v 0 c 0.38753,0.4887 0.77731,0.97615 1.13531,1.4873 z" />
    <path
       style="fill:#24221c;fill-opacity:0.0627451;stroke-width:0.264583"
       id="path16"
       d="m 100.87763,115.41746 c -2.579179,-0.64939 -5.040468,-1.63546 -7.494372,-2.64602 0,0 2.888824,2.27611 2.888824,2.27611 v 0 c 2.533102,1.03943 5.076928,2.04412 7.722958,2.76419 z" />
    <path
       style="fill:#24221c;fill-opacity:0.0627451;stroke-width:0.264583"
       id="path17"
       d="m 80.933784,106.55888 c -0.798587,-0.51297 -1.572004,-1.06375 -2.351154,-1.6054 0,0 -3.582897,-1.41008 -3.582897,-1.41008 v 0 c 0.757039,0.52705 1.503314,1.06928 2.270217,1.58193 z" />
    <path
       style="fill:#24221c;fill-opacity:0.0627451;stroke-width:0.264583"
       id="path18"
       d="m 43.865765,92.71664 c -0.526603,0.241273 -0.258516,0.10654 -0.802021,0.408625 0,0 3.290554,2.15333 3.290554,2.15333 v 0 c 0.543592,-0.275452 0.270457,-0.147175 0.818984,-0.385728 z" />
    <path
       style="fill:#24221c;fill-opacity:0.0627451;stroke-width:0.264583"
       id="path19"
       d="m 72.076939,132.59044 c 0.144407,0.0333 0.288814,0.0666 0.433218,0.0999 0,0 -3.121988,-2.39584 -3.121988,-2.39584 v 0 c -0.146547,-0.0448 -0.293095,-0.0897 -0.439642,-0.13449 z" />
    <path
       style="fill:#24221c;fill-opacity:0.0627451;stroke-width:0.264583"
       id="path20"
       d="m 91.747127,135.77729 c -0.16365,0.10867 -0.311372,0.24637 -0.49095,0.326 -1.560526,0.69205 -3.786844,0.83687 -5.415444,0.96514 -2.584135,0.20352 -4.648941,0.22357 -7.245665,0.29249 0,0 2.812386,2.03212 2.812386,2.03212 v 0 c 1.917634,-0.0492 5.441961,-0.12347 7.366254,-0.23675 1.866373,-0.10987 4.010131,-0.17507 5.772973,-0.93854 0.198996,-0.0862 0.367794,-0.22986 0.55169,-0.34479 z" />
    <path
       style="fill:#24221c;fill-opacity:0.0627451;stroke-width:0.264583"
       id="path21"
       d="m 50.940676,136.84181 c -0.53966,0.55271 -0.258697,0.26516 -0.842942,0.86261 0,0 3.331234,2.04191 3.331234,2.04191 v 0 c 0.591386,-0.57553 0.302705,-0.30702 0.862952,-0.80885 z" />
    <path
       style="fill:#24221c;fill-opacity:0.0627451;stroke-width:0.264583"
       id="path22"
       d="m 47.071491,153.98324 c 0.818504,1.35925 1.896861,2.46672 3.081155,3.50418 0,0 3.539037,1.43244 3.539037,1.43244 v 0 c -1.180806,-0.97307 -2.263068,-1.99766 -3.028031,-3.34453 z" />
    <path
       style="fill:#24221c;fill-opacity:0.0627451;stroke-width:0.264583"
       id="path23"
       d="m 69.484393,163.4917 c 1.145513,1.00431 2.429372,1.8341 3.682378,2.69338 0,0 3.431561,1.34884 3.431561,1.34884 v 0 c -1.178859,-0.81723 -2.395183,-1.60195 -3.468127,-2.56043 z" />
    <path
       style="fill:#24221c;fill-opacity:0.0627451;stroke-width:0.264583"
       id="path24"
       d="m 112.67062,176.86837 c 1.2697,0.72891 2.53939,1.45783 3.80909,2.18675 0,0 -3.0611,-2.46326 -3.0611,-2.46326 v 0 c 0.97874,0.57268 1.95749,1.14536 2.93623,1.71804 z" />
    <path
       style="fill:#24221c;fill-opacity:0.0627451;stroke-width:0.264583"
       id="path25"
       d="m 81.4467,201.07009 c -0.384559,0.12027 -0.76912,0.24054 -1.153679,0.36082 0,0 3.155371,2.15705 3.155371,2.15705 v 0 c 0.410181,-0.11409 0.820361,-0.22818 1.230542,-0.34226 z" />
    <path
       style="fill:#24221c;fill-opacity:0.0627451;stroke-width:0.264583"
       id="path26"
       d="m 63.950132,205.67924 c -3.408595,0.84848 -6.874245,1.42862 -10.331235,2.03506 0,0 2.770684,1.94308 2.770684,1.94308 v 0 c 3.570873,-0.57931 7.139837,-1.16815 10.702732,-1.79503 z" />
    <path
       style="fill:#24221c;fill-opacity:0.0627451;stroke-width:0.264583"
       id="path27"
       d="m 17.901604,211.86984 c -0.104638,-0.22306 -0.209275,-0.44612 -0.313913,-0.66919 0,0 -3.54057,-1.62405 -3.54057,-1.62405 v 0 c 0.09066,0.22414 0.181325,0.44827 0.271988,0.6724 z" />
    <path
       style="fill:#24221c;fill-opacity:0.0627451;stroke-width:0.264583"
       id="path28"
       d="m 15.142208,184.43101 c 2.14087,-0.48789 4.33484,-0.69515 6.510853,-0.95264 0,0 -2.903864,-2.06148 -2.903864,-2.06148 v 0 c -2.290729,0.23418 -4.600002,0.39972 -6.869334,0.80065 z" />
    <path
       style="fill:#24221c;fill-opacity:0.0627451;stroke-width:0.264583"
       id="path29"
       d="m 67.542036,175.4341 c 1.068702,1.33748 2.481289,2.31394 3.872595,3.2824 0,0 3.52366,1.38484 3.52366,1.38484 v 0 c -1.341969,-0.91415 -2.723216,-1.83448 -3.753675,-3.11099 z" />
    <path
       style="fill:#24221c;fill-opacity:0.0627451;stroke-width:0.264583"
       id="path30"
       d="m 113.83209,189.57529 c 4.3274,-0.63587 8.62452,-1.438 12.8933,-2.38886 2.95756,-0.83284 1.54166,-0.39649 4.25205,-1.29488 0,0 -3.06972,-2.08064 -3.06972,-2.08064 v 0 c -2.64674,0.9158 -1.25971,0.47463 -4.16658,1.30614 -4.31437,0.96973 -8.67427,1.82534 -13.09106,2.14637 z" />
    <path
       style="fill:#24221c;fill-opacity:0.0627451;stroke-width:0.264583"
       id="path31"
       d="m 144.55359,174.83175 c 1.607,-0.73821 2.64661,-2.1317 3.74872,-3.46337 0,0 -3.22216,-1.94006 -3.22216,-1.94006 v 0 c -1.12578,1.27514 -2.20921,2.58905 -3.83408,3.2272 z" />
    <path
       style="fill:#24221c;fill-opacity:0.0627451;stroke-width:0.264583"
       id="path32"
       d="m 167.88446,137.3138 c 0.25281,-0.8058 0.11709,-0.38165 0.40883,-1.27191 0,0 -3.41065,-1.88149 -3.41065,-1.88149 v 0 c -0.31026,0.87453 -0.15244,0.4611 -0.46829,1.24226 z" />
    <path
       style="fill:#24221c;fill-opacity:0.0627451;stroke-width:0.264583"
       id="path33"
       d="m 170.90502,120.31391 c -1.2827,-2.29877 -3.29435,-4.12681 -5.08727,-6.01281 0,0 -3.20125,-1.33765 -3.20125,-1.33765 v 0 c 1.66421,1.79207 3.48594,3.53464 4.73993,5.65981 z" />
    <path
       style="fill:#24221c;fill-opacity:0.0627451;stroke-width:0.264583"
       id="path34"
       d="m 119.97637,81.822569 c -2.21426,-0.09975 -4.43195,-0.127341 -6.62022,-0.505401 -2.26762,-0.488871 -4.47191,-1.210411 -6.76181,-1.608172 -2.75308,-0.478216 -4.47064,-0.599398 -7.311652,-0.891593 -1.317823,-0.116433 -2.635647,-0.232868 -3.953473,-0.3493 0,0 2.75967,2.042437 2.75967,2.042437 v 0 c 1.313315,0.116179 2.626635,0.23236 3.939945,0.348541 3.14082,0.369827 4.44521,0.456811 7.45376,1.046906 2.34741,0.460415 4.6026,1.265076 6.94892,1.720369 2.22257,0.321725 4.46794,0.329443 6.70247,0.530701 z" />
    <path
       style="fill:#24221c;fill-opacity:0.0627451;stroke-width:0.264583"
       id="path35"
       d="m 70.347135,85.894674 c -0.953013,0.179974 -0.433818,0.09369 -1.559665,0.246004 0,0 3.156878,2.232366 3.156878,2.232366 v 0 c 1.176324,-0.144314 0.632174,-0.06547 1.633813,-0.226973 z" />
    <path
       style="fill:#24221c;fill-opacity:0.0627451;stroke-width:0.264583"
       id="path36"
       d="m 52.165559,92.335658 c -1.301716,0.29296 -2.633517,0.403757 -3.957831,0.537284 0,0 3.064018,2.181715 3.064018,2.181715 v 0 c 1.378709,-0.125452 2.762073,-0.234249 4.124664,-0.490487 z" />
    <path
       style="fill:#24221c;fill-opacity:0.0627451;stroke-width:0.264583"
       id="path37"
       d="m 15.246939,20.117343 c -0.0042,-0.167149 -0.0084,-0.334297 -0.01261,-0.501446 0,0 -3.500913,-1.783805 -3.500913,-1.783805 v 0 c -0.0042,0.162865 -0.0084,0.32573 -0.01261,0.488595 z" />
    <circle
       id="path38"
       style="fill:#24221c;stroke:#000000;stroke-width:0.264583"
       cx="62.80645"
       cy="16.32258"
       r="0.047264166" />
    <path
       style="fill:#24221c;fill-opacity:0.0627451;stroke-width:0.264583"
       id="path39"
       d="m 104.80117,26.71146 c 0.7132,-0.01323 1.4265,-0.02013 2.13976,-0.02869 0,0 -3.12268,-2.268759 -3.12268,-2.268759 v 0 c -0.73959,-0.0086 -1.47921,-0.01561 -2.21874,-0.02869 z" />
    <path
       style="fill:#24221c;fill-opacity:0.0627451;stroke-width:0.264583"
       id="path40"
       d="m 157.00245,25.645159 c 2.55288,-0.672562 4.69688,-2.282703 7.05547,-3.38886 0.51941,-0.243599 1.06665,-0.422831 1.59997,-0.634246 2.54683,-0.226778 1.2301,-0.221545 3.95007,0.0319 0,0 -2.96935,-2.195296 -2.96935,-2.195296 v 0 c -2.82037,-0.207974 -1.45406,-0.249762 -4.10012,0.07771 -0.53397,0.226874 -1.08001,0.427233 -1.60192,0.680622 -2.32293,1.127783 -4.51491,2.733843 -7.13087,3.105595 z" />
    <circle
       id="path41"
       style="fill:#24221c;stroke:#000000;stroke-width:0.264583"
       cx="178.12903"
       cy="23.419355"
       r="0.047264166" />
    <circle
       id="path42"
       style="fill:#24221c;stroke:#000000;stroke-width:0.264583"
       cx="195.51613"
       cy="62.096775"
       r="0.047264166" />
    <path
       style="fill:#24221c;fill-opacity:0.0627451;stroke-width:0.264583"
       id="path43"
       d="m 192.24382,72.477619 c -0.12785,0.252634 -0.21802,0.528195 -0.38357,0.757906 -2.08612,2.894703 -5.42614,5.052867 -8.52419,6.69824 -0.91159,0.484142 -1.86398,0.88719 -2.79597,1.330785 0,0 2.96871,1.958639 2.96871,1.958639 v 0 c 4.18936,-2.065179 8.65763,-4.400034 11.70894,-8.054382 0.19423,-0.232617 0.31821,-0.51584 0.47731,-0.773761 z" />
    <path
       style="fill:#24221c;fill-opacity:0.0627451;stroke-width:0.264583"
       id="path44"
       d="m 167.00528,81.869184 c -1.49646,-0.949254 1.49737,0.972502 2.46659,1.062998 0.41192,0.03846 -0.42437,-0.711219 -0.60871,-1.081577 -0.79556,-1.598324 -1.3324,-3.292769 -1.88496,-4.984581 -0.25977,-0.871059 -0.77962,-2.507162 -0.94036,-3.438001 -0.0801,-0.464137 -0.0825,-0.938395 -0.12374,-1.407594 0,0 -3.39446,-1.692357 -3.39446,-1.692357 v 0 c 0.043,0.492093 0.0437,0.989719 0.12895,1.476277 0.13924,0.794983 0.74222,2.745722 0.95756,3.473712 0.53508,1.688804 1.05435,3.379579 1.77086,5.003117 0.16591,0.375934 0.22821,0.839275 0.53813,1.109089 2.89685,2.521926 2.42094,2.345198 4.2918,2.805062 z" />
    <path
       style="fill:#24221c;fill-opacity:0.0627451;stroke-width:0.264583"
       id="path45"
       d="m 181.52132,26.486969 c -1.51895,1.43429 -3.33571,2.516984 -4.84639,3.958349 -0.35087,0.334761 -0.66814,0.70304 -1.00221,1.05456 0,0 3.23997,1.975107 3.23997,1.975107 v 0 c 0.32709,-0.341135 0.63742,-0.699159 0.98125,-1.023403 1.52895,-1.441842 3.33901,-2.563593 4.97862,-3.868941 z" />
    <path
       style="fill:#24221c;fill-opacity:0.0627451;stroke-width:0.264583"
       id="path46"
       d="m 185.07101,45.806002 c -0.19989,0.05624 -0.39978,0.112477 -0.59967,0.168717 0,0 3.21837,2.21701 3.21837,2.21701 v 0 c 0.21502,-0.05018 0.43003,-0.100357 0.64505,-0.150535 z" />
    <path
       style="fill:#24221c;fill-opacity:0.0627451;stroke-width:0.264583"
       id="path47"
       d="m 140.98213,53.711779 c -0.72359,-0.70603 -0.35376,-0.336881 -1.10772,-1.10921 0,0 -3.58428,-1.490078 -3.58428,-1.490078 v 0 c 0.7352,0.755737 0.39105,0.381754 1.03674,1.118005 z" />
    <path
       style="fill:#24221c;fill-opacity:0.0627451;stroke-width:0.264583"
       id="path48"
       d="m 136.14644,48.041361 c -0.0932,-0.217821 -0.18633,-0.435642 -0.2795,-0.653463 0,0 -3.54213,-1.635141 -3.54213,-1.635141 v 0 c 0.0806,0.207847 0.16121,0.415693 0.24182,0.623539 z" />
    <path
       style="fill:#24221c;fill-opacity:0.0627451;stroke-width:0.264583"
       id="path49"
       d="m 133.62144,41.244676 c -0.92657,-2.041356 -2.00813,-4.003562 -3.10486,-5.95662 0,0 -3.38518,-1.511644 -3.38518,-1.511644 v 0 c 1.067,1.891744 2.1353,3.791145 2.9076,5.827807 z" />
    <path
       style="fill:#24221c;fill-opacity:0.0627451;stroke-width:0.264583"
       id="path50"
       d="m 121.42597,27.586 c -1.35296,0.03082 -0.63601,0.01921 -2.15088,0.03123 0,0 3.09605,2.249414 3.09605,2.249414 v 0 c 1.56093,0.01212 0.81533,7.93e-4 2.23685,0.03123 z" />
    <circle
       id="path51"
       style="fill:#24221c;stroke:#000000;stroke-width:0.264583"
       cx="116.3871"
       cy="57.838707"
       r="0.047264166" />
    <circle
       id="path52"
       style="fill:#24221c;stroke:#000000;stroke-width:0.264583"
       cx="147.25806"
       cy="74.161293"
       r="0.047264166" />
    <path
       style="fill:#24221c;fill-opacity:0.0627451;stroke-width:0.264583"
       id="path53"
       d="m 144.25139,78.514921 c -2.16463,0.4587 -4.40535,0.283649 -6.59337,0.135556 0,0 2.9811,2.195039 2.9811,2.195039 v 0 c 2.28874,0.137123 4.63885,0.324049 6.90236,-0.138028 z" />
    <path
       style="fill:#24221c;fill-opacity:0.0627451;stroke-width:0.264583"
       id="path54"
       d="m 123.71496,77.256282 c -1.1606,-0.173186 -2.30024,-0.437425 -3.43325,-0.738299 0,0 3.05447,2.339443 3.05447,2.339443 v 0 c 1.18023,0.296601 2.36745,0.597935 3.58044,0.725001 z" />
    <path
       style="fill:#24221c;fill-opacity:0.0627451;stroke-width:0.264583"
       id="path55"
       d="m 114.84798,73.526776 c 0.18129,0.158822 -1.91024,-1.021307 -1.42379,-0.783092 2.64711,1.296286 3.08747,1.99064 1.24908,0.09147 0,0 -3.47961,-1.459873 -3.47961,-1.459873 v 0 c 0.3417,0.397317 0.60101,0.884102 1.0251,1.191948 1.7213,1.249497 3.75565,2.457106 5.73801,3.39326 z" />
    <path
       style="fill:#24221c;fill-opacity:0.0627451;stroke-width:0.264583"
       id="path56"
       d="m 106.61535,55.45161 c 0.18041,-0.003 0.36082,-0.006 0.54123,-0.009 0,0 -3.17198,-2.304579 -3.17198,-2.304579 v 0 c -0.18867,-0.003 -0.37733,-0.006 -0.566,-0.009 z" />
    <path
       style="fill:#24221c;fill-opacity:0.0627451;stroke-width:0.264583"
       id="path57"
       d="m 121.05873,56.767163 c 0.22442,0.07974 2.15589,1.435521 1.35063,-0.0736 -0.13611,-0.255075 -0.44075,-0.374299 -0.66112,-0.561446 0,0 -3.59774,-1.455373 -3.59774,-1.455373 v 0 c 0.60945,0.513967 0.45954,0.694503 1.12015,0.307833 0.0229,-0.01342 -0.38151,-0.215263 -0.39075,-0.220184 -0.35692,-0.190159 -0.53452,-0.287647 -0.8928,-0.482328 z" />
    <path
       style="fill:#24221c;fill-opacity:0.0627451;stroke-width:0.264583"
       id="path58"
       d="m 67.609756,19.598812 c -0.896474,-0.214363 -0.430167,-0.105714 -1.399225,-0.324633 0,0 3.092204,2.358473 3.092204,2.358473 v 0 c 0.98098,0.243321 0.507907,0.113745 1.420275,0.384834 z" />
    <path
       style="fill:#24221c;fill-opacity:0.0627451;stroke-width:0.264583"
       id="path59"
       d="m 52.373558,43.370105 c -1.124667,3.265953 -2.126395,6.572097 -3.139842,9.873602 0,0 3.042412,1.666372 3.042412,1.666372 v 0 c 1.010878,-3.278137 2.007566,-6.567313 3.367289,-9.72331 z" />
    <path
       style="fill:#24221c;fill-opacity:0.0627451;stroke-width:0.264583"
       id="path60"
       d="m 79.997103,107.46961 c 3.211558,6.36014 11.051678,8.16904 17.357188,9.96192 0,0 -2.666492,-2.05381 -2.666492,-2.05381 v 0 c -9.235334,-2.6865 0.657939,0.30926 -8.36948,-2.78462 -0.06004,-0.0206 0.135483,0.21205 0.08996,0.16783 -1.112573,-1.08082 -2.235647,-2.1819 -2.840017,-3.63971 z" />
    <path
       style="fill:#24221c;fill-opacity:0.0627451;stroke-width:0.264583"
       id="path61"
       d="m 122.17069,91.692343 c -1.40515,0.88338 -2.69897,1.926425 -4.09484,2.828144 0,0 3.25082,2.083237 3.25082,2.083237 v 0 c 1.36492,-0.923161 2.64928,-1.990466 4.12573,-2.730704 z" />
    <path
       style="fill:#24221c;fill-opacity:0.0627451;stroke-width:0.264583"
       id="path62"
       d="m 92.164174,97.157581 c -0.501237,0.0072 -1.002474,0.01442 -1.503712,0.02164 0,0 3.058597,2.222201 3.058597,2.222201 v 0 c 0.521094,0.0072 1.042188,0.01442 1.563285,0.02164 z" />
    <path
       style="fill:#24221c;fill-opacity:0.0627451;stroke-width:0.264583"
       id="path63"
       d="m 83.422563,98.438352 c 0.293068,2.814688 1.730812,5.289518 2.967847,7.769988 0,0 3.180194,1.44054 3.180194,1.44054 v 0 c -1.161741,-2.37095 -2.536352,-4.73165 -2.670588,-7.43868 z" />
    <path
       style="fill:#24221c;fill-opacity:0.0627451;stroke-width:0.264583"
       id="path64"
       d="m 165.72712,121.2874 c 0.81212,0.56808 1.58651,1.18741 2.37441,1.78811 0,0 3.57877,1.42477 3.57877,1.42477 v 0 c -0.7756,-0.58114 -1.52865,-1.1882 -2.30047,-1.7741 z" />
    <path
       style="fill:#24221c;fill-opacity:0.0627451;stroke-width:0.264583"
       id="path65"
       d="m 129.84632,165.73694 c -0.0567,-3.71549 -0.39103,-2.78191 -4.60145,-4.7761 0,0 3.16222,2.3016 3.16222,2.3016 v 0 c -0.92502,-0.6307 -1.8518,-1.25883 -2.77505,-1.8921 -0.14042,-0.0963 0.3213,0.14727 0.42647,0.28118 0.1354,0.17239 0.22178,0.38658 0.26654,0.60116 0.0756,0.36258 0.0316,1.32346 0.0222,1.70138 z" />
    <path
       style="fill:#24221c;fill-opacity:0.0627451;stroke-width:0.264583"
       id="path66"
       d="m 114.01014,225.13121 c 0.96188,-0.0405 1.86949,-0.40282 2.77176,-0.70255 0,0 -3.17269,-2.15932 -3.17269,-2.15932 v 0 c -0.90061,0.27243 -1.80825,0.60395 -2.76706,0.49079 z" />
    <path
       style="fill:#24221c;fill-opacity:0.0627451;stroke-width:0.264583"
       id="path67"
       d="m 146.99711,217.93919 c 2.8935,-0.27917 5.76451,-0.75364 8.64088,-1.16705 0,0 -2.87073,-2.02517 -2.87073,-2.02517 v 0 c -2.94952,0.40397 -5.90453,0.88028 -8.88832,0.92674 z" />
    <circle
       id="path68"
       style="fill:#24221c;stroke:#000000;stroke-width:0.264583"
       cx="171.03226"
       cy="212.54839"
       r="0.047264166" />
    <circle
       id="path69"
       style="fill:#24221c;stroke:#000000;stroke-width:0.264583"
       cx="187.35484"
       cy="242.70967"
       r="0.047264166" />
    <path
       style="fill:#24221c;fill-opacity:0.0627451;stroke-width:0.264583"
       id="path70"
       d="m 189.24251,241.67946 c 0.69402,-3.75042 1.04118,-7.55562 1.58438,-11.33123 0,0 -3.18906,-1.68228 -3.18906,-1.68228 v 0 c -0.52668,3.7193 -0.8723,7.49317 -1.83111,11.13167 z" />
    <path
       style="fill:#24221c;fill-opacity:0.0627451;stroke-width:0.264583"
       id="path71"
       d="m 189.45652,193.72537 c -0.0257,-1.17168 -0.005,-0.571 -0.063,-1.80199 0,0 -3.45262,-1.73952 -3.45262,-1.73952 v 0 c 0.053,1.2032 0.0476,0.61605 0.0219,1.76139 z" />
    <path
       style="fill:#24221c;fill-opacity:0.0627451;stroke-width:0.264583"
       id="path72"
       d="m 189.1179,185.47218 c -0.093,-2.45278 -0.0992,-4.90784 -0.10599,-7.36204 0,0 -3.31415,-1.68864 -3.31415,-1.68864 v 0 c -0.007,2.41818 -0.0117,4.83732 -0.10599,7.25402 z" />
    <path
       style="fill:#24221c;fill-opacity:0.0627451;stroke-width:0.264583"
       id="path73"
       d="m 181.9085,160.28854 c -0.57516,0.0596 -1.0861,-0.009 -1.64494,-0.14013 0,0 3.11323,2.35174 3.11323,2.35174 v 0 c 0.58049,0.0852 1.14566,0.14051 1.73338,0.11453 z" />
    <path
       style="fill:#24221c;fill-opacity:0.0627451;stroke-width:0.264583"
       id="path74"
       d="m 160.831,139.12048 c -0.66094,0.20161 -1.33293,0.3619 -2.00503,0.52072 0,0 3.20685,2.21651 3.20685,2.21651 v 0 c 0.67581,-0.16442 1.34895,-0.34037 2.02921,-0.48583 z" />
    <path
       style="fill:#24221c;fill-opacity:0.0627451;stroke-width:0.264583"
       id="path75"
       d="m 159.80117,141.6792 c 2.88003,-0.0236 5.75358,-0.20584 8.62571,-0.40572 0,0 -2.96223,-2.12304 -2.96223,-2.12304 v 0 c -2.95149,0.17713 -5.9077,0.32977 -8.86515,0.20262 z" />
    <path
       style="fill:#24221c;fill-opacity:0.0627451;stroke-width:0.264583"
       id="path76"
       d="m 167.97555,225.20709 c -0.59364,1.03102 -0.27991,0.50721 -0.94415,1.56966 0,0 3.33607,1.94484 3.33607,1.94484 v 0 c 0.6847,-1.06231 0.35206,-0.54385 0.99824,-1.55517 z" />
    <path
       style="fill:#24221c;fill-opacity:0.0627451;stroke-width:0.264583"
       id="path77"
       d="m 120.68088,251.09798 c -0.45211,0.18534 -0.90422,0.37067 -1.35633,0.55601 0,0 3.14312,2.11496 3.14312,2.11496 v 0 c 0.47057,-0.16221 0.94114,-0.32442 1.41172,-0.48664 z" />
    <path
       style="fill:#24221c;fill-opacity:0.0627451;stroke-width:0.264583"
       id="path78"
       d="m 49.844597,261.39459 c -2.236698,-2.26401 -1.068094,-1.0723 -3.503073,-3.57782 0,0 -3.335454,-1.38912 -3.335454,-1.38912 v 0 c 2.336671,2.45344 1.237798,1.28098 3.302133,3.51221 z" />
    <path
       style="fill:#24221c;fill-opacity:0.0627451;stroke-width:0.264583"
       id="path79"
       d="m 41.297156,249.48173 c 7.015929,-0.91299 13.982543,-2.15668 20.982423,-3.18394 3.146439,-0.51279 6.33457,-0.83393 9.433478,-1.61112 0.547857,-0.1374 2.056305,-0.51337 2.594663,-1.01522 0.197623,-0.18421 0.248161,-0.47998 0.372243,-0.71997 -0.110268,-0.32732 -0.145556,-0.69045 -0.330801,-0.98198 -0.798245,-1.25621 -2.755765,-2.56355 -3.936029,-3.44995 0,0 -3.468052,-1.37735 -3.468052,-1.37735 v 0 c 1.554575,1.14219 3.260796,2.2531 4.338367,3.89075 -0.06814,0.17986 -0.06825,0.40374 -0.204422,0.53956 -0.491506,0.49021 -1.873401,0.88588 -2.376914,1.02971 -2.995218,0.85554 -6.098503,1.23405 -9.158454,1.76934 -7.115855,1.08893 -14.233202,2.31211 -21.418065,2.83601 z" />
    <path
       style="fill:#24221c;fill-opacity:0.0627451;stroke-width:0.264583"
       id="path80"
       d="m 32.756281,220.26163 c -0.234412,0.0214 -0.468825,0.0427 -0.703236,0.064 0,0 3.166928,2.27227 3.166928,2.27227 v 0 c 0.24108,-0.007 0.482158,-0.0139 0.723236,-0.0208 z" />
    <circle
       id="path81"
       style="fill:#24221c;stroke:#000000;stroke-width:0.264583"
       cx="30.161291"
       cy="221.77419"
       r="0.047264166" />
    <circle
       id="path82"
       style="fill:#24221c;stroke:#000000;stroke-width:0.264583"
       cx="29.451612"
       cy="268.96774"
       r="0.047264166" />
    <path
       style="fill:#24221c;fill-opacity:0.0627451;stroke-width:0.264583"
       id="path83"
       d="m 61.985654,278.28674 c 2.889361,-0.0565 5.765726,-0.37291 8.641807,-0.63106 0,0 -2.945153,-2.10021 -2.945153,-2.10021 v 0 c -2.952287,0.25897 -5.915843,0.56348 -8.883584,0.41584 z" />
    <path
       style="fill:#24221c;fill-opacity:0.0627451;stroke-width:0.264583"
       id="path84"
       d="m 87.769686,271.13058 c 0.314576,-0.53835 0.62915,-1.07667 0.943726,-1.61499 0,0 -3.226033,-1.87741 -3.226033,-1.87741 v 0 c -0.34545,0.51909 -0.690901,1.03815 -1.036354,1.55723 z" />
    <path
       style="fill:#24221c;fill-opacity:0.0627451;stroke-width:0.264583"
       id="path85"
       d="m 113.09128,207.89977 c -1.73866,3.28185 -3.41696,6.59249 -4.9703,9.96621 0,0 3.23866,1.82591 3.23866,1.82591 v 0 c 1.47514,-3.38434 3.11067,-6.70303 5.145,-9.792 z" />
    <circle
       id="path86"
       style="fill:#24221c;stroke:#000000;stroke-width:0.264583"
       cx="139.45161"
       cy="258.32257"
       r="0.047264166" />
    <circle
       id="path87"
       style="fill:#24221c;stroke:#000000;stroke-width:0.264583"
       cx="174.58064"
       cy="299.12903"
       r="0.047264166" />
    <path
       style="fill:#24221c;fill-opacity:0.0627451;stroke-width:0.264583"
       id="path88"
       d="m 184.7836,285.37016 c -0.72964,-2.37199 -2.7602,-3.88562 -4.69895,-5.26007 -2.69555,-1.66569 -0.83212,-0.53674 -5.66068,-3.26795 0,0 2.97248,2.39032 2.97248,2.39032 v 0 c -2.53427,-1.52424 -2.81167,-1.68598 -0.82136,-0.50331 1.87262,1.27423 3.89066,2.68959 4.66507,4.92275 z" />
    <circle
       id="path89"
       style="fill:#24221c;stroke:#000000;stroke-width:0.264583"
       cx="172.45161"
       cy="276.7742"
       r="0.047264166" />
    <path
       style="fill:#24221c;fill-opacity:0.0627451;stroke-width:0.264583"
       id="path90"
       d="m 164.13553,278.58019 c -0.14682,0.0398 -0.29364,0.0797 -0.44045,0.11953 0,0 3.23949,2.23049 3.23949,2.23049 v 0 c 0.1549,-0.0383 0.3098,-0.0765 0.4647,-0.11482 z" />
    <circle
       id="path91"
       style="fill:#24221c;stroke:#000000;stroke-width:0.264583"
       cx="162.87097"
       cy="280.32257"
       r="0.047264166" />
    <path
       style="fill:#24221c;fill-opacity:0.0627451;stroke-width:0.264583"
       id="path92"
       d="m 149.23807,286.90562 c -0.76809,-0.0657 -0.36222,-0.0326 -1.21772,-0.098 0,0 3.13693,2.32135 3.13693,2.32135 v 0 c 0.87286,0.0865 0.45694,0.0392 1.24811,0.13853 z" />
    <path
       style="fill:#24221c;fill-opacity:0.0627451;stroke-width:0.264583"
       id="path93"
       d="m 147.10971,288.34204 c -0.0861,-0.12314 -0.1722,-0.24625 -0.2583,-0.36938 0,0 -3.57564,-1.62965 -3.57564,-1.62965 v 0 c 0.0526,0.17457 0.10521,0.34917 0.15781,0.52377 z" />
    <circle
       id="path94"
       style="fill:#24221c;stroke:#000000;stroke-width:0.264583"
       cx="145.48387"
       cy="283.51611"
       r="0.047264166" />
    <circle
       id="path95"
       style="fill:#24221c;stroke:#000000;stroke-width:0.264583"
       cx="149.3871"
       cy="264.35483"
       r="0.047264166" />
    <path
       style="fill:#24221c;fill-opacity:0.0627451;stroke-width:0.264583"
       id="path96"
       d="m 154.45047,259.48128 c 0.56312,-0.67159 1.09712,-1.36398 1.62466,-2.06364 0,0 -3.30243,-1.96631 -3.30243,-1.96631 v 0 c -0.54704,0.69023 -1.09644,1.37576 -1.72232,1.99778 z" />
    <circle
       id="path97"
       style="fill:#24221c;stroke:#000000;stroke-width:0.264583"
       cx="170.67741"
       cy="249.45161"
       r="0.047264166" />
    <circle
       id="path98"
       style="fill:#24221c;stroke:#000000;stroke-width:0.264583"
       cx="179.19354"
       cy="259.03226"
       r="0.047264166" />
    <path
       style="fill:#24221c;fill-opacity:0.0627451;stroke-width:0.264583"
       id="path99"
       d="m 176.20024,241.26792 c -2.70504,-1.76169 -5.53915,-3.29627 -8.47512,-4.62722 0,0 2.96809,2.35717 2.96809,2.35717 v 0 c 0.44079,0.203 0.88576,0.39716 1.32237,0.609 0.47894,0.23238 1.83087,1.06643 1.42379,0.72341 -0.25517,-0.21501 -3.60608,-2.11291 -0.87222,-0.49124 z" />
    <path
       style="fill:#24221c;fill-opacity:0.0627451;stroke-width:0.264583"
       id="path100"
       d="m 157.39936,233.32498 c -4.62817,-0.12519 -9.23795,0.52032 -13.83216,0.99399 -5.64407,0.51006 -11.30299,0.86758 -16.87973,1.9151 -0.48151,0.10059 -0.96302,0.20118 -1.44452,0.30178 0,0 3.11543,2.16171 3.11543,2.16171 v 0 c 0.46529,-0.10833 0.93057,-0.21666 1.39586,-0.32498 5.49113,-1.12748 11.07653,-1.5531 16.65417,-2.03175 4.69397,-0.44264 9.44123,-1.07128 14.15827,-0.65393 z" />
    <path
       style="fill:#24221c;fill-opacity:0.0627451;stroke-width:0.264583"
       id="path101"
       d="m 116.11142,241.01729 c -1.38661,0.2712 -2.7958,0.39294 -4.19979,0.53194 0,0 3.06854,2.18398 3.06854,2.18398 v 0 c 1.46294,-0.1417 2.92971,-0.26443 4.38209,-0.49584 z" />
    <circle
       id="path102"
       style="fill:#24221c;stroke:#000000;stroke-width:0.264583"
       cx="104.67742"
       cy="259.38708"
       r="0.047264166" />
    <path
       style="fill:#24221c;fill-opacity:0.0627451;stroke-width:0.264583"
       id="path103"
       d="m 116.86053,258.29009 c -3.72628,3.27147 -8.40996,4.7186 -13.07464,6.08035 -0.96885,0.2371 -1.93769,0.47422 -2.90653,0.71134 0,0 2.94217,2.02824 2.94217,2.02824 v 0 c 0.95816,-0.25008 1.91632,-0.50014 2.87447,-0.7502 4.74085,-1.41258 9.54185,-2.9109 13.50628,-5.99118 z" />
    <path
       style="fill:#24221c;fill-opacity:0.0627451;stroke-width:0.264583"
       id="path104"
       d="m 70.839271,214.91074 c -1.23018,0.56308 -2.519844,0.96645 -3.808473,1.36805 0,0 3.132669,2.13393 3.132669,2.13393 v 0 c 1.316268,-0.41371 2.62527,-0.84532 3.917463,-1.33025 z" />
    <path
       style="fill:#24221c;fill-opacity:0.0627451;stroke-width:0.264583"
       id="path105"
       d="m 53.862035,222.11386 c -0.901403,2.15077 -1.675997,4.34743 -2.439005,6.55014 0,0 3.174121,1.75889 3.174121,1.75889 v 0 c 0.815393,-2.15223 1.615924,-4.31647 2.705497,-6.35 z" />
    <path
       style="fill:#24221c;fill-opacity:0.0627451;stroke-width:0.264583"
       id="path106"
       d="m 41.829773,147.1244 c -0.110617,-0.77542 -0.03998,-0.36145 -0.22256,-1.24006 0,0 -3.512037,-1.69755 -3.512037,-1.69755 v 0 c 0.181724,0.83057 0.126683,0.43254 0.183711,1.19136 z" />
    <path
       style="fill:#24221c;fill-opacity:0.0627451;stroke-width:0.264583"
       id="path107"
       d="m 36.837051,126.55509 c -0.19761,-0.54174 -0.284311,-1.11294 -0.381839,-1.67833 0,0 -3.507319,-1.71678 -3.507319,-1.71678 v 0 c 0.08656,0.57244 0.159641,1.14924 0.303339,1.71108 z" />
    <path
       style="fill:#24221c;fill-opacity:0.0627451;stroke-width:0.264583"
       id="path108"
       d="m 34.749544,96.543388 c -0.07405,-1.414272 0.204361,-2.799887 0.456514,-4.181496 0,0 -3.31475,-1.769025 -3.31475,-1.769025 v 0 c -0.278016,1.377182 -0.588912,2.757603 -0.640852,4.167647 z" />
    <circle
       id="path109"
       style="fill:#24221c;stroke:#000000;stroke-width:0.264583"
       cx="80.193542"
       cy="56.774193"
       r="0.047264166" />
    <circle
       id="path110"
       style="fill:#24221c;stroke:#000000;stroke-width:0.264583"
       cx="95.451607"
       cy="48.258064"
       r="0.047264166" />
    <path
       style="fill:#24221c;fill-opacity:0.0627451;stroke-width:0.264583"
       id="path111"
       d="m 92.803304,35.921391 c -0.846002,-0.163417 -1.675596,-0.390273 -2.503852,-0.624819 0,0 3.06103,2.353586 3.06103,2.353586 v 0 c 0.851403,0.233158 1.708208,0.444264 2.556076,0.689909 z" />
    <circle
       id="path112"
       style="fill:#24221c;stroke:#000000;stroke-width:0.264583"
       cx="35.838707"
       cy="122.06451"
       r="0.047264166" />
    <path
       style="fill:#24221c;fill-opacity:0.0627451;stroke-width:0.264583"
       id="path113"
       d="m 22.723508,210.2168 c 0.02162,3.24957 0.417714,6.49844 1.347198,9.62128 0.206438,0.69359 0.481539,1.36486 0.722308,2.04728 0,0 3.344127,1.55845 3.344127,1.55845 v 0 c -0.257445,-0.67653 -0.554329,-1.33934 -0.772335,-2.02959 -0.957852,-3.03276 -1.35312,-6.23392 -1.120572,-9.40352 z" />
    <path
       style="fill:#24221c;fill-opacity:0.0627451;stroke-width:0.264583"
       id="path114"
       d="m 102.00314,235.88506 c 1.485,0.32405 0.6722,0.14538 2.43808,0.53758 0,0 -3.01172,-2.29535 -3.01172,-2.29535 v 0 c -1.832754,-0.44698 -0.98749,-0.22185 -2.53961,-0.66091 z" />
    <path
       style="fill:#24221c;fill-opacity:0.0627451;stroke-width:0.264583"
       id="path115"
       d="m 149.04315,248.28947 c 1.58224,0.95294 3.42648,2.07105 4.90528,2.83056 0.31258,0.16055 0.67818,0.18439 1.01727,0.27658 0,0 -3.04554,-2.35638 -3.04554,-2.35638 v 0 c -0.3252,-0.11467 -1.25291,-0.54892 -0.9756,-0.34399 0.54468,0.40251 3.8715,2.27206 1.76441,1.00749 z" />
    <path
       style="fill:#24221c;fill-opacity:0.0627451;stroke-width:0.264583"
       id="path116"
       d="m 180.94137,288.53931 c -0.1417,-0.0697 -0.28339,-0.13941 -0.42508,-0.20912 0,0 3.06909,2.45499 3.06909,2.45499 v 0 c 0.14926,0.0757 0.29852,0.15152 0.44778,0.22727 z" />
    <path
       style="fill:#24221c;fill-opacity:0.0627451;stroke-width:0.264583"
       id="path117"
       d="m 143.41567,279.22363 c -2.18839,0.41618 -4.19215,1.47309 -6.22329,2.3501 0,0 3.16113,2.10278 3.16113,2.10278 v 0 c 2.01463,-0.89757 4.03968,-1.94747 6.26478,-2.17011 z" />
    <path
       style="fill:#24221c;fill-opacity:0.0627451;stroke-width:0.264583"
       id="path118"
       d="m 94.985212,280.4506 c -2.610512,0.3614 -5.281967,0.8644 -7.932037,0.5918 -3.943503,-0.40564 -7.753712,-1.95776 -11.476309,-3.21022 -2.299383,-0.78274 -4.909582,-1.71249 -7.262479,-2.35781 -1.068166,-0.29294 -2.155111,-0.51255 -3.232666,-0.7688 0,0 2.80558,2.14017 2.80558,2.14017 v 0 c 1.059482,0.25188 2.127999,0.46839 3.178448,0.75565 2.270175,0.62073 4.975516,1.56866 7.191428,2.31409 3.794506,1.27215 7.659425,2.82001 11.678573,3.22109 2.736284,0.27305 5.485635,-0.2794 8.202972,-0.47344 z" />
    <circle
       id="path119"
       style="fill:#24221c;stroke:#000000;stroke-width:0.264583"
       cx="15.258064"
       cy="271.80646"
       r="0.047264166" />
    <circle
       id="path120"
       style="fill:#24221c;stroke:#000000;stroke-width:0.264583"
       cx="36.903225"
       cy="285.64517"
       r="0.047264166" />
    <path
       style="fill:#24221c;fill-opacity:0.0627451;stroke-width:0.264583"
       id="path121"
       d="m 39.692606,276.91334 c -0.392758,-2.64197 -1.381181,-5.09895 -2.429203,-7.5361 0,0 -3.403716,-1.56308 -3.403716,-1.56308 v 0 c 1.025318,2.36762 1.994347,4.76297 2.2983,7.34719 z" />
    <circle
       id="path122"
       style="fill:#24221c;stroke:#000000;stroke-width:0.264583"
       cx="30.870968"
       cy="251.58064"
       r="0.047264166" />
    <path
       style="fill:#24221c;fill-opacity:0.0627451;stroke-width:0.264583"
       id="path123"
       d="m 32.158574,251.4092 c -0.110405,-0.15033 -0.22081,-0.30065 -0.331218,-0.45099 0,0 -3.600514,-1.55669 -3.600514,-1.55669 v 0 c 0.102426,0.14062 0.204854,0.28124 0.307282,0.42187 z" />
  </g>
</svg>